<svg width="78" height="48" viewBox="0 0 78 48" fill="none" xmlns="http://www.w3.org/2000/svg">
<path d="M44.8036 12.2619L50.4679 24.3424L48.6107 27.9378C47.4964 30.0231 46.6143 31.3174 46.3821 31.0657C46.1964 30.8141 44.525 27.4344 42.6679 23.5154C39.65 17.2235 38.5357 15.3899 38.5357 16.7561C38.5357 17.3673 31.8964 31.4612 31.6179 31.4612C31.4786 31.4612 30.4571 29.6995 29.3893 27.5423L27.4857 23.6233L33.1036 11.7226C36.1679 5.17897 38.8143 -0.106243 38.9071 0.00161743C39.0464 0.109482 41.6929 5.61042 44.8036 12.2619ZM14.7643 8.34291C15.275 9.49343 18.6179 16.6123 22.1929 24.1986L28.6929 37.9689L26.325 43.0024C24.9786 45.7349 23.8179 48 23.6786 48C23.5393 48 22.4714 45.9147 21.2643 43.3979C17.2714 34.9847 6.175 11.5069 5.57143 10.2125C5.10714 9.24176 4.31786 8.59459 2.46071 7.73169C1.11429 7.08452 0 6.50927 0 6.43736C0 6.36545 3.11071 6.29354 6.91786 6.29354H13.8357L14.7643 8.34291ZM78 6.43736C78 6.50927 76.8857 7.12048 75.4929 7.83955C73.0321 9.09794 72.9857 9.16985 71.1286 13.1967C70.1071 15.4258 67.4607 21.0706 65.2321 25.7086C63.0036 30.3467 59.7071 37.2858 57.9429 41.0969C56.1321 44.908 54.5071 47.8921 54.3214 47.7483C53.7643 47.2809 49.6786 38.652 49.6786 37.9689C49.6786 37.6453 52.975 30.3826 56.9679 21.8616L64.3036 6.29354H71.175C74.9357 6.29354 78 6.36545 78 6.43736Z" fill="white"/>
</svg>
